<?xml version="1.0" encoding="utf-8"?><svg viewBox="0 0 31 30" xmlns="http://www.w3.org/2000/svg" xmlns:xlink="http://www.w3.org/1999/xlink"><style>:root>svg{display:none}:root>svg:target{display:block}</style><svg fill="none" viewBox="0 0 12 12" id="Ellipse" xmlns="http://www.w3.org/2000/svg"><circle cx="6" cy="6" r="6" fill="#FF6E30"/></svg><svg fill="none" viewBox="0 0 20 18" id="burger" xmlns="http://www.w3.org/2000/svg"><path fill="#fff" d="M0 0h20v2H0zM0 8h20v2H0zM0 16h10v2H0z"/></svg><svg fill="none" viewBox="0 0 20 20" id="close" xmlns="http://www.w3.org/2000/svg"><circle cx="10" cy="10" r="10" fill="#666"/><path fill="#fff" d="M6.207 5.5l8.485 8.485-.707.707L5.5 6.207z"/><path fill="#fff" d="M5.59 13.985L14.077 5.5l.707.707-8.485 8.486z"/></svg><svg fill="none" viewBox="0 0 14 14" id="mdi_calendar_today" xmlns="http://www.w3.org/2000/svg"><path d="M11.667 1.75h-.584V.583H9.917V1.75H4.083V.583H2.917V1.75h-.584a1.17 1.17 0 00-1.166 1.167v9.333a1.17 1.17 0 001.166 1.167h9.334a1.17 1.17 0 001.166-1.167V2.917a1.17 1.17 0 00-1.166-1.167zm0 10.5H2.333V4.667h9.334v7.583z" fill="#fff"/></svg><svg fill="none" viewBox="0 0 30 30" id="ok" xmlns="http://www.w3.org/2000/svg"><path d="M12.853 9.99a2.24 2.24 0 104.478 0 2.24 2.24 0 00-4.478 0z" fill="#CACACA"/><path fill-rule="evenodd" clip-rule="evenodd" d="M15 30c8.284 0 15-6.716 15-15 0-8.284-6.716-15-15-15C6.716 0 0 6.716 0 15c0 8.284 6.716 15 15 15zM9.675 9.99a5.417 5.417 0 1110.834 0 5.417 5.417 0 01-10.834 0zm10.866 8.204c-.069.055-1.368 1.082-3.537 1.524l3.274 3.244a1.473 1.473 0 11-2.082 2.085l-3.178-3.095-2.886 3.075c-.29.3-.675.45-1.06.45a1.473 1.473 0 01-1.06-2.495l3.107-3.247c-2.23-.431-3.583-1.485-3.653-1.541a1.473 1.473 0 011.843-2.298c.014.01 1.429 1.074 3.71 1.075 2.28-.001 3.666-1.064 3.68-1.075a1.473 1.473 0 011.842 2.298z" fill="#CACACA"/></svg><svg fill="none" viewBox="0 0 18 18" id="phone" xmlns="http://www.w3.org/2000/svg"><path d="M16.343 12.098a10.49 10.49 0 01-3.236-.513.896.896 0 00-.926.22l-1.44 1.806c-2.593-1.238-5.023-3.575-6.315-6.261l1.787-1.522a.935.935 0 00.22-.935 10.223 10.223 0 01-.513-3.236.916.916 0 00-.907-.907H1.84C1.346.75.75.97.75 1.657c0 8.516 7.086 15.593 15.593 15.593.65 0 .907-.578.907-1.082v-3.162a.916.916 0 00-.907-.908z" fill="#FF6E30"/></svg><svg fill="none" viewBox="0 0 25 25" id="search" xmlns="http://www.w3.org/2000/svg"><path d="M24.911 22.814l-5.057-4.457c1.487-1.98 2.292-4.403 2.292-6.95 0-3.05-1.156-5.909-3.245-8.065C16.812 1.186 14.03 0 11.073 0c-2.957 0-5.74 1.19-7.829 3.342C1.152 5.494 0 8.357 0 11.407c0 3.045 1.155 5.912 3.244 8.064 2.09 2.156 4.869 3.343 7.829 3.343 2.473 0 4.82-.83 6.743-2.358l5.058 4.453a.3.3 0 00.214.091.294.294 0 00.214-.091l1.61-1.654a.312.312 0 00.088-.22.319.319 0 00-.089-.221zM16.92 17.43c-1.565 1.608-3.639 2.494-5.846 2.494-2.207 0-4.282-.886-5.847-2.494a8.603 8.603 0 01-2.42-6.023c0-2.274.86-4.415 2.42-6.023 1.565-1.608 3.64-2.494 5.847-2.494 2.207 0 4.285.882 5.846 2.494a8.602 8.602 0 012.422 6.023c0 2.274-.86 4.414-2.422 6.023z" fill="#fff"/></svg><svg fill="none" viewBox="0 0 31 30" id="vk" xmlns="http://www.w3.org/2000/svg"><path d="M15.85 0C7.584 0 .88 6.702.88 14.97s6.703 14.97 14.97 14.97c8.268 0 14.97-6.702 14.97-14.97S24.119 0 15.85 0zm7.594 16.59c.698.68 1.436 1.322 2.062 2.074.278.333.54.677.738 1.063.285.552.028 1.157-.466 1.19h-3.067c-.792.065-1.422-.255-1.953-.796-.425-.432-.818-.893-1.227-1.34a2.867 2.867 0 00-.552-.49c-.418-.272-.781-.19-1.02.248-.245.444-.3.937-.324 1.431-.034.724-.252.913-.977.947-1.55.072-3.022-.163-4.389-.945-1.206-.69-2.14-1.662-2.953-2.764-1.584-2.148-2.798-4.505-3.888-6.93-.245-.546-.066-.838.537-.85a85.326 85.326 0 013.003 0c.407.006.677.239.833.623.541 1.331 1.204 2.597 2.035 3.772.222.312.448.624.77.845.355.244.626.163.793-.233a2.57 2.57 0 00.177-.792c.08-.925.09-1.85-.049-2.772-.085-.577-.41-.95-.985-1.058-.293-.056-.25-.164-.107-.331.247-.29.478-.468.941-.468l3.465-.001c.546.107.669.352.743.902l.003 3.851c-.006.213.107.844.49.983.306.101.508-.144.69-.338.832-.882 1.424-1.923 1.954-3 .234-.475.436-.967.632-1.46.146-.363.372-.543.784-.536l3.336.004c.099 0 .199 0 .296.017.562.096.716.338.542.887-.273.862-.806 1.58-1.326 2.3-.557.77-1.152 1.514-1.703 2.288-.508.707-.468 1.064.162 1.678z" fill="#CACACA"/></svg></svg>